<svg width="25" height="25" viewBox="0 0 25 25" fill="none" xmlns="http://www.w3.org/2000/svg">
<circle cx="12.5" cy="12.5" r="12.5" fill="#EFEFEF"/>
<path fill-rule="evenodd" clip-rule="evenodd" d="M9.35882 8.8305C8.80137 9.37973 8.37526 10.0478 8.1123 10.7849C7.84935 11.5219 7.75635 12.3089 7.84027 13.0869C7.84808 13.1915 7.81489 13.2949 7.74774 13.3754C7.68059 13.4558 7.58475 13.507 7.48052 13.518C7.3763 13.529 7.27189 13.499 7.1894 13.4343C7.10692 13.3697 7.05285 13.2755 7.03866 13.1716C6.94186 12.273 7.04934 11.3641 7.35307 10.5128C7.6568 9.66156 8.14892 8.88991 8.79269 8.2555C11.1612 5.91921 14.9822 5.95711 17.3266 8.33453C19.6709 10.7119 19.6556 14.5321 17.2862 16.8684C16.1893 17.9515 14.7171 18.5702 13.1758 18.5958C12.593 18.6065 12.0117 18.5329 11.4499 18.3773C11.3469 18.3488 11.2593 18.2806 11.2065 18.1876C11.1537 18.0946 11.14 17.9844 11.1685 17.8813C11.1969 17.7782 11.2652 17.6906 11.3582 17.6379C11.4512 17.5851 11.5614 17.5714 11.6645 17.5999C12.1516 17.7349 12.6558 17.7987 13.1612 17.7894C14.4959 17.7684 15.7709 17.2327 16.7201 16.2942C18.7693 14.2732 18.7862 10.9636 16.7524 8.90066C14.7185 6.83775 11.408 6.80953 9.35882 8.8305Z" fill="black"/>
<path fill-rule="evenodd" clip-rule="evenodd" d="M7.73787 13.5992C7.70261 13.6387 7.65991 13.6709 7.61221 13.6939C7.56451 13.7169 7.51275 13.7303 7.45988 13.7333C7.40701 13.7363 7.35406 13.7288 7.30407 13.7113C7.25408 13.6939 7.20802 13.6667 7.16852 13.6315L5.78142 12.3976C5.73878 12.3634 5.70355 12.3208 5.67786 12.2726C5.65218 12.2243 5.63658 12.1713 5.63202 12.1168C5.62746 12.0623 5.63403 12.0075 5.65132 11.9556C5.66862 11.9037 5.69629 11.8559 5.73264 11.8151C5.769 11.7742 5.81328 11.7412 5.8628 11.718C5.91231 11.6948 5.96603 11.6819 6.02068 11.6801C6.07533 11.6784 6.12977 11.6877 6.1807 11.7076C6.23162 11.7275 6.27796 11.7576 6.31691 11.796L7.704 13.0299C7.74362 13.065 7.77592 13.1076 7.79907 13.1553C7.82221 13.2029 7.83574 13.2546 7.83889 13.3075C7.84203 13.3604 7.83473 13.4134 7.8174 13.4634C7.80007 13.5135 7.77304 13.5596 7.73787 13.5992Z" fill="black"/>
<path fill-rule="evenodd" clip-rule="evenodd" d="M7.11385 13.5482C7.14562 13.5906 7.18543 13.6263 7.23099 13.6532C7.27655 13.6802 7.32699 13.698 7.37941 13.7055C7.43183 13.7129 7.48521 13.71 7.5365 13.6969C7.5878 13.6837 7.636 13.6606 7.67837 13.6289L9.29127 12.4192C9.37682 12.355 9.43338 12.2595 9.44851 12.1536C9.46363 12.0478 9.43608 11.9402 9.37191 11.8547C9.30775 11.7691 9.21223 11.7126 9.10636 11.6974C9.00049 11.6823 8.89295 11.7099 8.8074 11.774L7.1945 12.9837C7.10894 13.0479 7.05238 13.1434 7.03726 13.2493C7.02213 13.3551 7.04968 13.4627 7.11385 13.5482ZM12.9042 9.67725C13.0111 9.67725 13.1137 9.71973 13.1893 9.79535C13.2649 9.87097 13.3074 9.97353 13.3074 10.0805V12.9031C13.3074 13.01 13.2649 13.1126 13.1893 13.1882C13.1137 13.2638 13.0111 13.3063 12.9042 13.3063C12.7972 13.3063 12.6947 13.2638 12.619 13.1882C12.5434 13.1126 12.5009 13.01 12.5009 12.9031V10.0805C12.5009 9.97353 12.5434 9.87097 12.619 9.79535C12.6947 9.71973 12.7972 9.67725 12.9042 9.67725Z" fill="black"/>
<path fill-rule="evenodd" clip-rule="evenodd" d="M15.7263 12.9032C15.7263 13.0102 15.6838 13.1127 15.6082 13.1883C15.5326 13.264 15.43 13.3065 15.3231 13.3065H12.9037C12.7968 13.3065 12.6942 13.264 12.6186 13.1883C12.543 13.1127 12.5005 13.0102 12.5005 12.9032C12.5005 12.7963 12.543 12.6937 12.6186 12.6181C12.6942 12.5425 12.7968 12.5 12.9037 12.5H15.3231C15.43 12.5 15.5326 12.5425 15.6082 12.6181C15.6838 12.6937 15.7263 12.7963 15.7263 12.9032Z" fill="black"/>
</svg>
