<svg width="22" height="22" viewBox="0 0 22 22" fill="none" xmlns="http://www.w3.org/2000/svg">
<path d="M6.00005 6.01465H6.00905M12 13.0146H18C18.932 13.0146 19.398 13.0146 19.765 13.1666C20.0079 13.2672 20.2285 13.4145 20.4143 13.6004C20.6002 13.7862 20.7475 14.0068 20.848 14.2496C21 14.6166 21 15.0826 21 16.0146C21 16.9466 21 17.4126 20.848 17.7796C20.7475 18.0225 20.6002 18.2431 20.4143 18.4289C20.2285 18.6148 20.0079 18.7621 19.765 18.8626C19.398 19.0146 18.932 19.0146 18 19.0146H12M14 4.01465H18C18.932 4.01465 19.398 4.01465 19.765 4.16665C20.0079 4.26716 20.2285 4.41454 20.4143 4.60037C20.6002 4.7862 20.7475 5.00683 20.848 5.24965C21 5.61665 21 6.08265 21 7.01465C21 7.94665 21 8.41265 20.848 8.77965C20.7475 9.02247 20.6002 9.2431 20.4143 9.42892C20.2285 9.61475 20.0079 9.76214 19.765 9.86265C19.398 10.0146 18.932 10.0146 18 10.0146H14M6.00005 1.01465C4.8991 1.01432 3.82882 1.37736 2.95528 2.04746C2.08175 2.71755 1.4538 3.65722 1.16888 4.72067C0.883956 5.78411 0.957991 6.91186 1.3795 7.92893C1.801 8.94599 2.54641 9.79551 3.50005 10.3456V16.8576C3.50005 17.6756 3.50005 18.0836 3.65205 18.4516C3.80405 18.8186 4.09405 19.1076 4.67205 19.6866L6.00005 21.0146L8.10805 18.9066C8.20505 18.8096 8.25405 18.7606 8.29405 18.7076C8.4 18.5692 8.46791 18.4054 8.49105 18.2326C8.50005 18.1666 8.50005 18.0976 8.50005 17.9606C8.50005 17.8496 8.50005 17.7936 8.49405 17.7396C8.47847 17.598 8.43279 17.4612 8.36005 17.3386C8.32073 17.2763 8.278 17.2162 8.23205 17.1586L7.00005 15.5146L7.70005 14.5816C8.09605 14.0526 8.29505 13.7886 8.39705 13.4806C8.50005 13.1726 8.50005 12.8426 8.50005 12.1806V10.3456C9.45369 9.79551 10.1991 8.94599 10.6206 7.92893C11.0421 6.91186 11.1161 5.78411 10.8312 4.72067C10.5463 3.65722 9.91835 2.71755 9.04482 2.04746C8.17128 1.37736 7.101 1.01432 6.00005 1.01465Z" stroke="black" stroke-width="1.5" stroke-linecap="round" stroke-linejoin="round"/>
</svg>
