<svg width="23" height="24" viewBox="0 0 23 24" fill="none" xmlns="http://www.w3.org/2000/svg">
<path d="M3.59375 5.5459C3.40313 5.5459 3.22031 5.47017 3.08552 5.33538C2.95073 5.20059 2.875 5.01777 2.875 4.82715C2.875 4.63652 2.95073 4.45371 3.08552 4.31892C3.22031 4.18412 3.40313 4.1084 3.59375 4.1084H19.4062C19.5969 4.1084 19.7797 4.18412 19.9145 4.31892C20.0493 4.45371 20.125 4.63652 20.125 4.82715C20.125 5.01777 20.0493 5.20059 19.9145 5.33538C19.7797 5.47017 19.5969 5.5459 19.4062 5.5459H3.59375ZM6.46875 2.6709C6.27813 2.6709 6.09531 2.59517 5.96052 2.46038C5.82573 2.32559 5.75 2.14277 5.75 1.95215C5.75 1.76152 5.82573 1.57871 5.96052 1.44392C6.09531 1.30912 6.27813 1.2334 6.46875 1.2334H16.5312C16.7219 1.2334 16.9047 1.30912 17.0395 1.44392C17.1743 1.57871 17.25 1.76152 17.25 1.95215C17.25 2.14277 17.1743 2.32559 17.0395 2.46038C16.9047 2.59517 16.7219 2.6709 16.5312 2.6709H6.46875ZM0 19.2021C0 19.774 0.227176 20.3225 0.631551 20.7268C1.03593 21.1312 1.58438 21.3584 2.15625 21.3584H20.8438C21.4156 21.3584 21.9641 21.1312 22.3685 20.7268C22.7728 20.3225 23 19.774 23 19.2021V9.13965C23 8.56778 22.7728 8.01932 22.3685 7.61495C21.9641 7.21057 21.4156 6.9834 20.8438 6.9834H2.15625C1.58438 6.9834 1.03593 7.21057 0.631551 7.61495C0.227176 8.01932 0 8.56778 0 9.13965L0 19.2021ZM2.15625 19.9209C1.96563 19.9209 1.78281 19.8452 1.64802 19.7104C1.51323 19.5756 1.4375 19.3928 1.4375 19.2021V9.13965C1.4375 8.94902 1.51323 8.76621 1.64802 8.63142C1.78281 8.49662 1.96563 8.4209 2.15625 8.4209H20.8438C21.0344 8.4209 21.2172 8.49662 21.352 8.63142C21.4868 8.76621 21.5625 8.94902 21.5625 9.13965V19.2021C21.5625 19.3928 21.4868 19.5756 21.352 19.7104C21.2172 19.8452 21.0344 19.9209 20.8438 19.9209H2.15625Z" fill="black"/>
</svg>
