<svg width="22" height="22" viewBox="0 0 22 22" fill="none" xmlns="http://www.w3.org/2000/svg">
<path d="M15.9699 13.4547C17.3399 13.6847 18.8499 13.4447 19.9099 12.7347C21.3199 11.7947 21.3199 10.2547 19.9099 9.31466C18.8399 8.60466 17.3099 8.36465 15.9399 8.60465M5.99994 13.4547C4.62994 13.6847 3.11994 13.4447 2.05994 12.7347C0.649941 11.7947 0.649941 10.2547 2.05994 9.31466C3.12994 8.60466 4.65994 8.36465 6.02994 8.60465M16.9999 6.17465C16.9399 6.16465 16.8699 6.16465 16.8099 6.17465C15.4299 6.12465 14.3299 4.99465 14.3299 3.59465C14.3299 2.16465 15.4799 1.01465 16.9099 1.01465C18.3399 1.01465 19.4899 2.17465 19.4899 3.59465C19.4799 4.99465 18.3799 6.12465 16.9999 6.17465ZM4.96994 6.17465C5.02994 6.16465 5.09994 6.16465 5.15994 6.17465C6.53994 6.12465 7.63994 4.99465 7.63994 3.59465C7.63994 2.16465 6.48994 1.01465 5.05994 1.01465C3.62994 1.01465 2.47994 2.17465 2.47994 3.59465C2.48994 4.99465 3.58994 6.12465 4.96994 6.17465ZM10.9999 13.6447C10.9399 13.6347 10.8699 13.6347 10.8099 13.6447C9.42994 13.5947 8.32994 12.4647 8.32994 11.0647C8.32994 9.63465 9.47994 8.48465 10.9099 8.48465C12.3399 8.48465 13.4899 9.64465 13.4899 11.0647C13.4799 12.4647 12.3799 13.6047 10.9999 13.6447ZM8.08994 16.7946C6.67994 17.7346 6.67994 19.2746 8.08994 20.2146C9.68994 21.2846 12.3099 21.2846 13.9099 20.2146C15.3199 19.2746 15.3199 17.7346 13.9099 16.7946C12.3199 15.7346 9.68994 15.7346 8.08994 16.7946Z" stroke="black" stroke-width="1.5" stroke-linecap="round" stroke-linejoin="round"/>
</svg>
