<svg width="20" height="21" viewBox="0 0 20 21" fill="none" xmlns="http://www.w3.org/2000/svg">
<path d="M4.625 0.764648C4.11613 0.764648 3.61224 0.864878 3.1421 1.05962C2.67197 1.25435 2.24479 1.53978 1.88496 1.89961C1.52513 2.25944 1.2397 2.68661 1.04497 3.15675C0.85023 3.62689 0.75 4.13078 0.75 4.63965C0.75 5.14852 0.85023 5.65241 1.04497 6.12255C1.2397 6.59268 1.52513 7.01986 1.88496 7.37969C2.24479 7.73951 2.67197 8.02494 3.1421 8.21968C3.61224 8.41442 4.11613 8.51465 4.625 8.51465C5.65271 8.51465 6.63834 8.10639 7.36504 7.37969C8.09174 6.65298 8.5 5.66736 8.5 4.63965C8.5 3.61193 8.09174 2.62631 7.36504 1.89961C6.63834 1.17291 5.65271 0.764648 4.625 0.764648ZM15.375 0.764648C14.8661 0.764648 14.3622 0.864878 13.8921 1.05962C13.422 1.25435 12.9948 1.53978 12.635 1.89961C12.2751 2.25944 11.9897 2.68661 11.795 3.15675C11.6002 3.62689 11.5 4.13078 11.5 4.63965C11.5 5.14852 11.6002 5.65241 11.795 6.12255C11.9897 6.59268 12.2751 7.01986 12.635 7.37969C12.9948 7.73951 13.422 8.02494 13.8921 8.21968C14.3622 8.41442 14.8661 8.51465 15.375 8.51465C16.4027 8.51465 17.3883 8.10639 18.115 7.37969C18.8417 6.65298 19.25 5.66736 19.25 4.63965C19.25 3.61193 18.8417 2.62631 18.115 1.89961C17.3883 1.17291 16.4027 0.764648 15.375 0.764648ZM4.625 11.5146C4.11613 11.5146 3.61224 11.6149 3.1421 11.8096C2.67197 12.0044 2.24479 12.2898 1.88496 12.6496C1.52513 13.0094 1.2397 13.4366 1.04497 13.9067C0.85023 14.3769 0.75 14.8808 0.75 15.3896C0.75 15.8985 0.85023 16.4024 1.04497 16.8725C1.2397 17.3427 1.52513 17.7699 1.88496 18.1297C2.24479 18.4895 2.67197 18.7749 3.1421 18.9697C3.61224 19.1644 4.11613 19.2646 4.625 19.2646C5.65271 19.2646 6.63834 18.8564 7.36504 18.1297C8.09174 17.403 8.5 16.4174 8.5 15.3896C8.5 14.3619 8.09174 13.3763 7.36504 12.6496C6.63834 11.9229 5.65271 11.5146 4.625 11.5146ZM15.375 11.5146C14.8661 11.5146 14.3622 11.6149 13.8921 11.8096C13.422 12.0044 12.9948 12.2898 12.635 12.6496C12.2751 13.0094 11.9897 13.4366 11.795 13.9067C11.6002 14.3769 11.5 14.8808 11.5 15.3896C11.5 15.8985 11.6002 16.4024 11.795 16.8725C11.9897 17.3427 12.2751 17.7699 12.635 18.1297C12.9948 18.4895 13.422 18.7749 13.8921 18.9697C14.3622 19.1644 14.8661 19.2646 15.375 19.2646C16.4027 19.2646 17.3883 18.8564 18.115 18.1297C18.8417 17.403 19.25 16.4174 19.25 15.3896C19.25 14.3619 18.8417 13.3763 18.115 12.6496C17.3883 11.9229 16.4027 11.5146 15.375 11.5146Z" stroke="black" stroke-width="1.5" stroke-linecap="round" stroke-linejoin="round"/>
</svg>
