<svg width="24" height="25" viewBox="0 0 24 25" fill="none" xmlns="http://www.w3.org/2000/svg">
<path d="M12.75 13.5146V12.0146H11.25V13.5146H2.25V18.0146H3.75V15.0146H11.25V18.0146H12.75V15.0146H20.25V18.0146H21.75V13.5146H12.75Z" fill="black"/>
<path d="M3 24.0146C2.40326 24.0146 1.83097 23.7776 1.40901 23.3556C0.987053 22.9337 0.75 22.3614 0.75 21.7646C0.75 21.1679 0.987053 20.5956 1.40901 20.1737C1.83097 19.7517 2.40326 19.5146 3 19.5146C3.59674 19.5146 4.16903 19.7517 4.59099 20.1737C5.01295 20.5956 5.25 21.1679 5.25 21.7646C5.25 22.3614 5.01295 22.9337 4.59099 23.3556C4.16903 23.7776 3.59674 24.0146 3 24.0146ZM3 21.0146C2.80109 21.0146 2.61032 21.0937 2.46967 21.2343C2.32902 21.375 2.25 21.5657 2.25 21.7646C2.25 21.9636 2.32902 22.1543 2.46967 22.295C2.61032 22.4356 2.80109 22.5146 3 22.5146C3.19891 22.5146 3.38968 22.4356 3.53033 22.295C3.67098 22.1543 3.75 21.9636 3.75 21.7646C3.75 21.5657 3.67098 21.375 3.53033 21.2343C3.38968 21.0937 3.19891 21.0146 3 21.0146ZM12 24.0146C11.4033 24.0146 10.831 23.7776 10.409 23.3556C9.98705 22.9337 9.75 22.3614 9.75 21.7646C9.75 21.1679 9.98705 20.5956 10.409 20.1737C10.831 19.7517 11.4033 19.5146 12 19.5146C12.5967 19.5146 13.169 19.7517 13.591 20.1737C14.0129 20.5956 14.25 21.1679 14.25 21.7646C14.25 22.3614 14.0129 22.9337 13.591 23.3556C13.169 23.7776 12.5967 24.0146 12 24.0146ZM12 21.0146C11.8011 21.0146 11.6103 21.0937 11.4697 21.2343C11.329 21.375 11.25 21.5657 11.25 21.7646C11.25 21.9636 11.329 22.1543 11.4697 22.295C11.6103 22.4356 11.8011 22.5146 12 22.5146C12.1989 22.5146 12.3897 22.4356 12.5303 22.295C12.671 22.1543 12.75 21.9636 12.75 21.7646C12.75 21.5657 12.671 21.375 12.5303 21.2343C12.3897 21.0937 12.1989 21.0146 12 21.0146ZM21 24.0146C20.4033 24.0146 19.831 23.7776 19.409 23.3556C18.9871 22.9337 18.75 22.3614 18.75 21.7646C18.75 21.1679 18.9871 20.5956 19.409 20.1737C19.831 19.7517 20.4033 19.5146 21 19.5146C21.5967 19.5146 22.169 19.7517 22.591 20.1737C23.0129 20.5956 23.25 21.1679 23.25 21.7646C23.25 22.3614 23.0129 22.9337 22.591 23.3556C22.169 23.7776 21.5967 24.0146 21 24.0146ZM21 21.0146C20.8011 21.0146 20.6103 21.0937 20.4697 21.2343C20.329 21.375 20.25 21.5657 20.25 21.7646C20.25 21.9636 20.329 22.1543 20.4697 22.295C20.6103 22.4356 20.8011 22.5146 21 22.5146C21.1989 22.5146 21.3897 22.4356 21.5303 22.295C21.671 22.1543 21.75 21.9636 21.75 21.7646C21.75 21.5657 21.671 21.375 21.5303 21.2343C21.3897 21.0937 21.1989 21.0146 21 21.0146ZM17.25 6.01465V4.51465H15.675C15.5779 4.04623 15.392 3.60072 15.1275 3.20215L16.245 2.08465L15.18 1.01965L14.0625 2.13715C13.6639 1.8726 13.2184 1.68676 12.75 1.58965V0.0146484H11.25V1.58965C10.7816 1.68676 10.3361 1.8726 9.9375 2.13715L8.82 1.01965L7.755 2.08465L8.8725 3.20215C8.60795 3.60072 8.42211 4.04623 8.325 4.51465H6.75V6.01465H8.325C8.42211 6.48307 8.60795 6.92858 8.8725 7.32715L7.755 8.44465L8.8125 9.50215L9.93 8.38465C10.3303 8.65272 10.7784 8.84115 11.25 8.93965V10.5146H12.75V8.93965C13.2184 8.84254 13.6639 8.65669 14.0625 8.39215L15.18 9.50965L16.2375 8.45215L15.1275 7.32715C15.392 6.92858 15.5779 6.48307 15.675 6.01465H17.25ZM12 7.51465C11.7045 7.51465 11.4119 7.45645 11.139 7.34338C10.866 7.2303 10.6179 7.06457 10.409 6.85564C10.2001 6.64671 10.0343 6.39867 9.92127 6.12569C9.8082 5.8527 9.75 5.56012 9.75 5.26465C9.75 4.96917 9.8082 4.67659 9.92127 4.40361C10.0343 4.13063 10.2001 3.88259 10.409 3.67366C10.6179 3.46473 10.866 3.29899 11.139 3.18592C11.4119 3.07285 11.7045 3.01465 12 3.01465C12.5967 3.01465 13.169 3.2517 13.591 3.67366C14.0129 4.09561 14.25 4.66791 14.25 5.26465C14.25 5.86139 14.0129 6.43368 13.591 6.85564C13.169 7.2776 12.5967 7.51465 12 7.51465Z" fill="black"/>
<path d="M12.0002 6.01475C11.8013 6.01475 11.6106 5.93574 11.4699 5.79508C11.3293 5.65443 11.2502 5.46367 11.2502 5.26475C11.2467 5.21482 11.2467 5.16469 11.2502 5.11475C11.259 5.06792 11.2742 5.0225 11.2952 4.97975C11.3111 4.93174 11.3339 4.88627 11.3627 4.84475C11.3909 4.80583 11.421 4.76829 11.4527 4.73225C11.5227 4.66224 11.6072 4.60847 11.7002 4.57475C11.8368 4.51732 11.9874 4.50163 12.1329 4.52966C12.2783 4.55769 12.4123 4.62818 12.5177 4.73225L12.6077 4.84475C12.6358 4.88673 12.6585 4.93209 12.6752 4.97975C12.7078 5.02009 12.7332 5.06577 12.7502 5.11475C12.7541 5.16468 12.7541 5.21483 12.7502 5.26475C12.7502 5.46367 12.6712 5.65443 12.5306 5.79508C12.3899 5.93574 12.1992 6.01475 12.0002 6.01475Z" fill="black"/>
</svg>
