<svg width="20" height="24" viewBox="0 0 20 24" fill="none" xmlns="http://www.w3.org/2000/svg">
<path d="M2 8.01465C2 5.89292 2.84285 3.85809 4.34315 2.35779C5.84344 0.857503 7.87827 0.0146484 10 0.0146484C12.1217 0.0146484 14.1566 0.857503 15.6569 2.35779C17.1571 3.85809 18 5.89292 18 8.01465V12.7116L20 15.7116V20.0146H14.389C14.1615 21.0084 13.6036 21.8955 12.8064 22.5308C12.0091 23.1661 11.0199 23.5121 10.0005 23.5121C8.98109 23.5121 7.99185 23.1661 7.19464 22.5308C6.39744 21.8955 5.83946 21.0084 5.612 20.0146H0V15.7116L2 12.7116V8.01465ZM7.708 20.0146C7.90238 20.4609 8.2228 20.8407 8.62995 21.1074C9.03709 21.3742 9.51325 21.5163 10 21.5163C10.4867 21.5163 10.9629 21.3742 11.3701 21.1074C11.7772 20.8407 12.0976 20.4609 12.292 20.0146H7.708ZM10 2.01465C8.4087 2.01465 6.88258 2.64679 5.75736 3.77201C4.63214 4.89723 4 6.42335 4 8.01465V13.3176L2 16.3176V18.0146H18V16.3176L16 13.3176V8.01465C16 6.42335 15.3679 4.89723 14.2426 3.77201C13.1174 2.64679 11.5913 2.01465 10 2.01465Z" fill="black"/>
</svg>
