<svg width="21" height="21" viewBox="0 0 21 21" fill="none" xmlns="http://www.w3.org/2000/svg">
<path d="M18.8999 10.6745C18.7396 10.4921 18.6512 10.2575 18.6512 10.0145C18.6512 9.77164 18.7396 9.53703 18.8999 9.35454L20.1799 7.91454C20.3209 7.75721 20.4085 7.55925 20.4301 7.34905C20.4516 7.13885 20.4061 6.92723 20.2999 6.74454L18.2999 3.28454C18.1948 3.10206 18.0348 2.95742 17.8426 2.87123C17.6505 2.78504 17.4361 2.7617 17.2299 2.80454L15.3499 3.18454C15.1107 3.23397 14.8616 3.19413 14.6498 3.07254C14.4379 2.95095 14.2779 2.75603 14.1999 2.52454L13.5899 0.694544C13.5228 0.495923 13.395 0.323409 13.2245 0.201386C13.0541 0.0793625 12.8495 0.0140024 12.6399 0.0145436H8.6399C8.42183 0.00316151 8.20603 0.0634699 8.02546 0.186258C7.84489 0.309045 7.70948 0.487563 7.6399 0.694544L7.0799 2.52454C7.0019 2.75603 6.84187 2.95095 6.63001 3.07254C6.41815 3.19413 6.16911 3.23397 5.9299 3.18454L3.9999 2.80454C3.80445 2.77692 3.6052 2.80777 3.42724 2.89318C3.24929 2.9786 3.1006 3.11477 2.9999 3.28454L0.999896 6.74454C0.891056 6.92519 0.842118 7.13563 0.860079 7.34577C0.878039 7.5559 0.961979 7.75498 1.0999 7.91454L2.3699 9.35454C2.53022 9.53703 2.61863 9.77164 2.61863 10.0145C2.61863 10.2575 2.53022 10.4921 2.3699 10.6745L1.0999 12.1145C0.961979 12.2741 0.878039 12.4732 0.860079 12.6833C0.842118 12.8935 0.891056 13.1039 0.999896 13.2845L2.9999 16.7445C3.10499 16.927 3.26502 17.0717 3.45715 17.1579C3.64928 17.244 3.86372 17.2674 4.0699 17.2245L5.9499 16.8445C6.18911 16.7951 6.43815 16.835 6.65001 16.9565C6.86187 17.0781 7.0219 17.2731 7.0999 17.5045L7.7099 19.3345C7.77948 19.5415 7.91489 19.72 8.09546 19.8428C8.27603 19.9656 8.49183 20.0259 8.7099 20.0145H12.7099C12.9195 20.0151 13.1241 19.9497 13.2945 19.8277C13.465 19.7057 13.5928 19.5332 13.6599 19.3345L14.2699 17.5045C14.3479 17.2731 14.5079 17.0781 14.7198 16.9565C14.9316 16.835 15.1807 16.7951 15.4199 16.8445L17.2999 17.2245C17.5061 17.2674 17.7205 17.244 17.9126 17.1579C18.1048 17.0717 18.2648 16.927 18.3699 16.7445L20.3699 13.2845C20.4761 13.1019 20.5216 12.8902 20.5001 12.68C20.4785 12.4698 20.3909 12.2719 20.2499 12.1145L18.8999 10.6745ZM17.4099 12.0145L18.2099 12.9145L16.9299 15.1345L15.7499 14.8945C15.0297 14.7473 14.2805 14.8697 13.6445 15.2383C13.0085 15.607 12.53 16.1964 12.2999 16.8945L11.9199 18.0145H9.3599L8.9999 16.8745C8.76975 16.1764 8.29128 15.587 7.6553 15.2183C7.01932 14.8497 6.27012 14.7273 5.5499 14.8745L4.3699 15.1145L3.0699 12.9045L3.8699 12.0045C4.36185 11.4545 4.63383 10.7425 4.63383 10.0045C4.63383 9.26661 4.36185 8.55457 3.8699 8.00454L3.0699 7.10454L4.3499 4.90454L5.5299 5.14454C6.25012 5.29177 6.99932 5.16942 7.6353 4.80074C8.27128 4.43206 8.74975 3.8427 8.9799 3.14454L9.3599 2.01454H11.9199L12.2999 3.15454C12.53 3.8527 13.0085 4.44206 13.6445 4.81074C14.2805 5.17942 15.0297 5.30177 15.7499 5.15454L16.9299 4.91454L18.2099 7.13454L17.4099 8.03454C16.9235 8.5833 16.6549 9.29123 16.6549 10.0245C16.6549 10.7579 16.9235 11.4658 17.4099 12.0145ZM10.6399 6.01454C9.84877 6.01454 9.07541 6.24914 8.41761 6.68867C7.75982 7.12819 7.24713 7.7529 6.94438 8.48381C6.64163 9.21471 6.56241 10.019 6.71675 10.7949C6.8711 11.5708 7.25206 12.2836 7.81147 12.843C8.37088 13.4024 9.08361 13.7833 9.85954 13.9377C10.6355 14.092 11.4397 14.0128 12.1706 13.7101C12.9015 13.4073 13.5262 12.8946 13.9658 12.2368C14.4053 11.579 14.6399 10.8057 14.6399 10.0145C14.6399 8.95368 14.2185 7.93626 13.4683 7.18612C12.7182 6.43597 11.7008 6.01454 10.6399 6.01454ZM10.6399 12.0145C10.2443 12.0145 9.85765 11.8972 9.52876 11.6775C9.19986 11.4577 8.94351 11.1454 8.79214 10.7799C8.64076 10.4145 8.60116 10.0123 8.67833 9.62436C8.7555 9.2364 8.94598 8.88004 9.22568 8.60033C9.50539 8.32063 9.86175 8.13014 10.2497 8.05297C10.6377 7.9758 11.0398 8.01541 11.4053 8.16678C11.7707 8.31816 12.0831 8.5745 12.3028 8.9034C12.5226 9.2323 12.6399 9.61898 12.6399 10.0145C12.6399 10.545 12.4292 11.0537 12.0541 11.4288C11.679 11.8038 11.1703 12.0145 10.6399 12.0145Z" fill="black"/>
</svg>
