<svg width="16" height="22" viewBox="0 0 16 22" fill="none" xmlns="http://www.w3.org/2000/svg">
<path d="M8.16021 9.88465C8.06021 9.87465 7.94021 9.87465 7.83021 9.88465C5.45021 9.80465 3.56021 7.85465 3.56021 5.45465C3.56021 3.00465 5.54022 1.01465 8.00022 1.01465C10.4502 1.01465 12.4402 3.00465 12.4402 5.45465C12.4302 7.85465 10.5402 9.80465 8.16021 9.88465Z" stroke="black" stroke-width="1.5" stroke-linecap="round" stroke-linejoin="round"/>
<path d="M3.16021 13.5746C0.740215 15.1946 0.740215 17.8346 3.16021 19.4446C5.91021 21.2846 10.4202 21.2846 13.1702 19.4446C15.5902 17.8246 15.5902 15.1846 13.1702 13.5746C10.4302 11.7446 5.92021 11.7446 3.16021 13.5746Z" stroke="black" stroke-width="1.5" stroke-linecap="round" stroke-linejoin="round"/>
</svg>
